<?xml version="1.0" encoding="UTF-8" standalone="no"?>
<!-- Created with Inkscape (http://www.inkscape.org/) -->

<svg
   width="332.32642mm"
   height="71.965439mm"
   viewBox="0 0 332.32642 71.965439"
   version="1.1"
   id="svg1"
   xmlns="http://www.w3.org/2000/svg"
   xmlns:svg="http://www.w3.org/2000/svg">
  <defs
     id="defs1" />
  <g
     id="layer1"
     transform="translate(73.02482,-138.90619)">
    <path
       id="path7206"
       d="m 228.31957,209.7299 -0.004,0.001 0.002,-0.007 0.007,0.005 -0.005,7.1e-4 3.5e-4,3.5e-4 z m -9.65095,-0.58878 h -7e-4 l 7e-4,-7.1e-4 -0.003,-0.0561 0.0293,0.0582 z m -24.36424,-1.86373 0.004,0.0243 -0.0374,-0.008 z m -3.82129,-63.45097 c 0.005,0.0526 0.0183,0.10196 0.0381,0.14852 -0.0409,-0.01 -0.0819,-0.018 -0.12241,-0.0286 0.0303,-0.0416 0.0564,-0.0801 0.0843,-0.11995 z m 34.3528,65.94793 -0.0141,-7e-4 0.004,-3.6e-4 z m -79.49319,-69.44043 -0.024,0.0339 -0.0102,-0.0332 z m -175.288939,15.14087 c -0.02963,-0.0586 -0.05468,-0.10971 -0.08255,-0.1651 l 0.05539,-0.0102 c 0.0081,0.0579 0.01517,0.11466 0.02716,0.17533 z M 256.854,183.41409 c 2.50472,-1.81363 3.02683,-3.88444 1.8415,-6.78674 -0.18697,-1.50036 -0.88547,-2.77389 -1.76036,-3.96769 -0.43745,-0.61666 -1.04422,-0.98848 -1.7392,-1.2446 -0.83255,-0.52247 -1.778,-0.64594 -2.72697,-0.76094 -0.35983,-0.22014 -0.93133,0.16333 -1.18886,-0.4251 0.79728,-0.71473 1.7145,-1.30704 2.16253,-2.32763 0.0494,-0.0543 0.0847,-0.11077 0.10583,-0.16898 0.0635,-0.0959 0.127,-0.19226 0.18697,-0.28822 -0.22577,-1.1497 -0.34219,-2.29129 0.25753,-3.37996 0,0 -0.067,-0.0381 -0.1023,-0.0582 -0.32103,-0.17321 0.0247,-0.70238 -0.43039,-0.80363 -0.23989,-0.2861 -0.25753,-0.635 -0.2787,-0.98319 0.0106,-0.17004 0.0212,-0.34008 0.0318,-0.51012 -0.31044,-0.88018 -0.62089,-1.76142 -1.2453,-2.48532 -0.004,-0.2413 -0.004,-0.48224 -0.007,-0.72354 0.0847,-0.0744 0.17286,-0.14605 0.25047,-0.2286 0.58561,-0.64806 0.98778,-1.38254 1.05128,-2.2726 -0.004,-0.3743 -0.007,-0.66569 -0.0247,-0.89711 0.19755,-1.26542 -0.0953,-2.48391 -0.51153,-3.69006 0.0247,-0.24835 0.0388,-0.49953 0.0353,-0.756 -0.4057,-1.96392 -1.28411,-3.5807 -3.24909,-4.39385 -0.10583,-0.0176 -0.21519,-0.025 -0.32808,-0.0279 -0.60678,-0.43074 -1.26647,-0.74013 -2.00378,-0.89852 -0.0141,-0.0653 -0.0317,-0.13088 -0.0423,-0.20567 -0.0176,-0.0917 -0.18345,-0.15029 -0.28575,-0.21061 -0.77259,-0.41557 -1.62984,-0.56092 -2.48003,-0.72672 -2.4765,-0.48049 -4.99181,-0.635 -7.49547,-0.87242 -0.59761,-0.0572 -1.14688,0.0198 -1.67605,0.29668 -2.13889,1.11725 -4.44041,1.14618 -6.76239,0.98037 -3.49427,-0.24941 -6.98254,-0.58561 -10.48809,-0.6611 -0.98002,0.007 -1.96391,0.12488 -2.93723,-0.0907 -0.27058,-0.0526 -0.53763,-0.0522 -0.80257,0.0342 l -0.0254,0.0166 c -0.83432,-0.0854 -1.66863,-0.1718 -2.50472,-0.22613 -0.5401,-0.0353 -1.0802,-0.0691 -1.62031,-0.10407 -0.77752,-0.13582 -1.60584,-0.0547 -2.3756,-0.2233 -0.54787,-0.12065 -1.08127,-0.14288 -1.60126,-0.0317 -4.09081,-0.26106 -8.18162,-0.51929 -12.27208,-0.77859 -0.1457,-0.0758 -0.29175,-0.10124 -0.4378,-0.0967 -0.62195,-0.1524 -1.24319,-0.32314 -1.86831,0.0847 -0.0762,-0.0162 -0.14746,-0.003 -0.21273,0.0392 -0.52493,-0.37465 -1.08902,-0.37677 -1.6577,-0.32809 -0.39123,-0.0494 -0.76306,-0.15486 -1.14159,-0.23248 -4.1596,-0.75035 -8.37918,-0.84737 -12.5857,-1.04633 -2.43346,-0.11466 -4.86516,-0.26812 -7.30391,-0.32315 -6.10976,-0.13582 -12.20082,-0.81209 -18.32257,-0.67945 -1.42381,0.0977 -2.85327,-0.0543 -4.27708,0.0811 -0.73554,-0.003 -1.47144,0.008 -2.20768,0.0268 -0.16228,-0.0261 -0.32385,-0.0713 -0.48613,-0.0755 -0.14394,-0.004 -0.28787,-0.008 -0.43145,-0.012 -1.518,-0.25365 -3.05823,-0.41381 -4.56883,-0.19261 -0.17815,0.0261 -0.35771,0.0423 -0.53869,0.0529 -1.8796,-0.0515 -3.75955,-0.10336 -5.63915,-0.15451 -0.33796,-0.14605 -0.71014,-0.20144 -1.10561,-0.18592 -4.33705,0.17075 -8.66034,-0.3115 -12.99598,-0.26811 -0.44661,0.005 -0.89429,0.0169 -1.34161,0.0282 -0.95285,-0.0402 -1.90818,-0.31644 -2.85538,-0.0554 -0.14817,-0.0141 -0.29634,0.003 -0.44415,-0.0169 -0.0603,-0.10266 -0.12065,-0.27199 -0.18098,-0.27199 -6.71371,0 -13.428131,0 -20.142551,0 -0.4064,0.35278 -0.85725,0.0363 -1.284464,0.0921 -0.159808,0.0208 -0.340078,-0.009 -0.421216,0.10654 -0.181681,0.002 -0.363009,-0.003 -0.543984,0.0208 -1.279878,0.27093 -2.586919,-0.008 -3.869972,0.19438 l -0.04974,0.018 c -0.450497,0.0187 -0.899583,0.0624 -1.345494,0.15487 -0.122414,0.008 -0.243064,0.0222 -0.361245,0.0494 -0.787047,0.001 -1.574094,0.001 -2.361142,0.002 -0.322439,-0.073 -0.662869,-0.0416 -0.995186,-0.0586 -0.311855,-0.0155 -0.624417,-0.0106 -0.936978,-0.004 -0.269522,-0.0328 -0.53975,-0.0639 -0.810683,-0.0762 -0.403225,-0.0187 -0.807156,-0.0233 -1.211086,-0.0212 -0.03986,-0.008 -0.07937,-0.013 -0.119239,-0.0226 -0.330553,-0.073 -0.6604,-0.0868 -0.990953,0.004 -0.03316,0.013 -0.06703,0.0265 -0.100895,0.0406 -0.95638,0.0268 -1.91135,0.0646 -2.861027,0.0402 -1.613253,-0.0413 -3.240265,-0.26776 -4.851048,-0.21132 -0.833261,-0.024 -1.667228,-0.0141 -2.501547,-0.004 -0.407459,-0.0187 -0.814212,-0.0265 -1.217789,0.008 -0.366184,0 -0.73272,-0.002 -1.098903,-0.013 -0.145697,-0.002 -0.290689,-0.003 -0.436386,0.002 -2.967567,0.0116 -5.902326,0.48648 -8.868834,0.57538 -2.088092,0.0624 -4.185003,0.26705 -6.26992,0.47342 -0.292453,0.0286 -0.583495,0.0759 -0.866422,0.1457 -1.59385,0.17992 -3.179939,0.4184 -4.755092,0.73413 -0.159456,-0.072 -0.335492,-0.11712 -0.54222,-0.11289 -0.14358,0.004 -0.286103,0.0198 -0.426155,0.0554 -2.717801,0.28363 -5.406673,0.85619 -8.156223,0.84032 -2.072922,0.0197 -4.106334,0.43427 -6.163028,0.62512 -5.102578,0.47343 -10.18787,1.11337 -15.284451,1.65135 -3.7401505,0.39476 -7.5018201,0.46073 -11.240912,0.8823 -2.04505295,0.23036 -4.1278531,0.44979 -6.157031,0.48048 -1.8443223,0.0282 -3.6900558,0.0861 -5.5336726,0.19474 -0.3192639,0.0801 -0.6346474,0.15839 -0.9662584,0.18415 -2.990497,0.23389 -5.987698,0.32808 -8.981017,0.49741 -1.918759,0.10936 -3.853745,0.16898 -5.755217,0.53869 -0.415925,0.005 -0.794103,0.09 -1.148645,0.22225 -1.12783,-0.007 -2.245078,0.14253 -3.360208,0.31786 -1.167342,0.19332 -2.38125,-0.38488 -3.523898,0.21554 -0.162278,0.005 -0.392994,-0.0603 -0.477661,0.0233 -1.059392,1.04634 -2.461331,1.03787 -3.786717,1.3088 -0.52705,0.10831 -0.887941,0.55774 -0.933803,1.15888 -0.0889,0.16474 -0.177094,0.32914 -0.265994,0.49353 -0.32385,1.17969 -0.255058,2.35832 0.0099,3.53625 1.4478,0.71014 1.376539,-0.74189 1.888772,-1.46191 0.468136,0.74789 0.495653,1.85561 1.570567,1.78294 0.932392,-0.0632 1.087614,0.51752 1.290461,1.15217 0.01094,0.19967 0.02364,0.39864 0.224367,0.51611 0.05292,0.0469 0.106186,0.0938 0.159455,0.14111 0.04092,0.1203 0.0889,0.23954 0.137231,0.35525 0.257528,0.48966 0.682625,0.60854 1.166283,0.56691 -0.112889,0.12842 -0.424039,-0.0215 -0.584553,0.0748 -0.04974,-0.001 -0.09842,0.002 -0.148166,-3.5e-4 -0.272345,0.007 -0.5461,0.0127 -0.815975,0.0677 -2.748845,0.38206 -5.475817,0.91511 -8.242301,1.18498 -2.288469,0.32632 -4.328583,1.55752 -6.652684,1.79212 -0.809977,0.0818 -1.17475,0.78493 -1.320094,1.59702 -0.263878,1.47743 0.182033,2.77672 0.92075,4.00262 0.421569,0.70061 0.3175,0.9839 -0.533047,1.11654 -0.972256,0.1524 -1.985081,0.0931 -2.916062,0.49283 -0.341136,0.17216 -0.710494,0.19685 -1.082322,0.22648 -0.268111,0.0215 -0.531989,0.054 -0.794455,0.091 -1.319742,0.10936 -2.606676,0.38876 -3.761317,1.02694 -0.689681,0.381 -1.757187,0.53728 -2.090914,1.49754 -0.05715,0.0646 -0.107245,0.13405 -0.144639,0.21308 -0.208139,0.0695 -0.416278,0.13899 -0.624417,0.20814 -0.306564,0.0123 -0.61595,-0.007 -0.923925,-0.012 -0.395464,-0.10336 -0.875242,-7e-4 -1.284464,-0.0614 -2.349147,0.24624 -4.66725,0.61313 -6.983589,1.06927 -1.308806,-0.0469 -2.017889,0.88759 -2.723445,1.73637 0,0.16545 0,0.33196 0,0.49742 0.705556,0.41733 1.537758,0.89111 2.076097,1.64465 0.41275,0.5782 0.900995,0.42227 1.396295,0.11042 0.935919,0.34219 0.987072,-0.70415 1.532819,-0.97685 0.720373,-0.40534 0.975431,-0.0843 0.963789,0.81386 0.09278,-0.89888 0.841023,-0.58667 1.156406,-0.93451 0.07902,-0.0265 0.1016,-0.078 0.06879,-0.15416 0.665691,-1.12924 1.059391,-1.15288 1.883833,-0.32561 0.240595,0.24059 0.604308,0.91298 0.965906,0.59337 0.456847,-0.40323 1.587853,0.14146 1.472142,-1.07562 -0.02752,-0.28681 0.337608,-0.96344 0.795866,-0.49248 0.412397,0.4251 0.735542,0.18627 1.066448,0.0854 0.05397,0.0713 0.106891,0.14358 0.162277,0.21343 0.689681,0.85725 1.410759,1.66123 2.646892,1.63054 l 0.01199,-0.0303 c 0.225777,0.2159 0.451555,0.4318 0.677333,0.64806 0.577497,0.42051 1.068917,0.96273 1.752247,1.23331 0.07232,0.072 0.144992,0.14323 0.228953,0.1905 0.08185,0.11783 0.188383,0.22754 0.329847,0.32491 0.887236,0.37359 1.497542,-0.23319 2.134659,-0.64806 0.696383,-0.45402 1.508125,-0.86607 2.19463,-0.39052 1.753306,1.2132 3.613151,0.84666 5.505098,0.69815 1.88842,-0.14852 3.788128,-0.40464 5.65397,-0.46779 2.101497,-0.0702 4.261556,-0.16616 6.241345,-0.56621 3.245908,-0.65616 6.496756,-0.21166 9.704211,-0.70943 2.238728,0.0106 4.470048,-0.16898 6.703131,-0.30551 -0.672747,0.10478 -1.344083,0.22225 -2.029178,0.14323 -5.21723,0.50729 -10.399184,1.3275 -15.616767,1.83868 -2.5527,0.24976 -5.08,0.72884 -7.628467,0.9652 -6.59377,0.61101 -13.136387,1.58009 -19.67971,2.55834 -0.543278,0.0819 -1.048808,0.23319 -1.457325,0.62654 -0.240947,0.31785 -0.525286,0.57926 -0.849136,0.7941 -0.47237,0.25012 -0.953559,0.46743 -1.559631,0.008 -0.253647,-0.19191 -0.497416,0.15805 -0.565503,0.4699 -0.09701,0.44168 -0.179564,0.88195 -0.03845,1.29434 -0.01552,0.21238 -0.0095,0.4251 0.03175,0.63395 0.624769,2.20592 2.243666,3.59621 4.017786,4.84364 0.479425,0.33725 1.053042,0.47378 1.652411,0.3937 2.614436,-0.35102 5.254978,-0.48966 7.850012,-1.00013 0.691092,-0.24236 1.425575,-0.16686 2.221794,-0.33126 -0.246239,0.0773 -0.409222,0.085 -0.564444,0.12242 -2.326922,0.55103 -4.694062,0.9151 -7.028392,1.4351 -0.703792,0.15663 -1.513064,0.17709 -1.870075,1.00647 -0.0508,0.2092 -0.02963,0.37818 0.03175,0.52458 -0.12312,0.37324 -0.04762,0.76341 0.08749,1.10737 0.135819,0.34608 -0.0088,0.49177 -0.181328,0.61983 -0.08537,-3.5e-4 -0.170745,0.006 -0.256117,0.0212 -0.237419,0.0561 -0.437797,0.17674 -0.609953,0.34713 -0.03387,0.0399 -0.07232,0.085 -0.109361,0.13229 -0.348192,0.11466 -0.510469,0.4953 -0.377472,0.65864 0.524581,0.64558 0.158397,1.36172 0.32138,2.01965 0.06703,0.27129 0.196145,0.46285 0.381353,0.61772 0.0046,0.14464 0.01411,0.28892 0.0321,0.43144 0.42545,0.61701 1.043517,0.96309 1.751189,1.08726 2.72662,0.47625 5.4356,0.16334 8.100131,-0.40886 1.1303,-0.24236 2.283178,-0.48649 3.401836,-0.55422 1.534937,-0.0928 2.082448,1.2827 2.472267,2.4952 0.287161,0.89288 0.805039,1.60196 1.640417,1.67217 2.014714,0.16933 4.154664,1.05798 5.976056,-0.6731 0.246592,-0.2346 0.626181,-0.18627 0.9525,-0.23989 0.173214,0.03 0.329142,0.0554 0.477308,0.0776 0.4318,0.35313 1.072445,0.32808 1.57727,0.52034 0.806803,0.30798 1.336675,-0.16545 1.398058,-0.871 0.04092,0 0.07902,0 0.122061,0 l 0.0064,-0.0325 c 0.225073,0.007 0.472017,-0.0857 0.721078,-0.17074 0.31115,-0.0692 0.569031,-0.13582 0.772231,-0.19297 0.370417,-0.005 0.690386,0.19473 0.872067,0.95708 0.01376,0.0593 0.517877,0.10866 0.69215,7.1e-4 0.652286,-0.40428 0.9144,-0.94121 0.415925,-1.65347 0.04939,-0.0325 0.09948,-0.0663 0.1524,-0.10513 0.06068,-0.0444 0.122766,-0.0921 0.186266,-0.1404 0.534106,-0.0282 0.997656,-0.0533 1.459442,-0.0783 -0.006,-0.21061 -0.06244,-0.42686 -0.02681,-0.63288 0.03881,-0.004 0.0762,-0.0113 0.115711,-0.012 1.26365,-0.49812 2.335742,-0.28963 3.16477,0.84667 0.121355,0.16616 0.366889,0.23495 0.470253,0.39758 0.620536,0.97896 1.450975,0.90099 2.356555,0.50835 l 0.05856,-0.0656 c 0.664634,0.0885 1.359606,0.0836 1.562453,1.01354 0.07726,0.35524 0.508353,0.52458 0.918986,0.48083 0.974726,-0.10301 0.905581,0.43815 0.636764,1.05692 -0.36583,0.83997 -0.70238,1.6757 -0.457552,2.61867 0.0575,0.0388 0.121002,0.0565 0.191205,0.0508 1.397706,1.08162 3.052586,1.08409 4.680303,1.1991 0.156634,0.1598 0.397228,0.28857 0.530225,0.45896 1.15817,0.9712 2.4712088,1.66723 3.9673394,1.87607 2.934053,0.40958 5.8931532,0.50447 8.85366446,0.53517 0.65581394,0.007 1.35819454,-0.12842 1.89865014,0.3302 0.6526389,0.55386 1.4442723,0.63111 2.2126223,0.98389 0.9948334,0 1.9896668,0 2.984853,0 0.1770945,0 0.3855861,-0.0843 0.5919612,-0.0903 4.3430475,-0.13441 8.6860945,-0.36195 13.0044485,-0.78422 7.049911,-0.69039 14.106173,-1.21003 21.183248,-1.37125 6.743348,-0.15311 13.48352,-0.36618 20.224399,-0.58208 1.364544,-0.0434 2.746728,0.11853 4.094691,-0.0141 6.357762,-0.62688 12.740571,-0.4766 19.110327,-0.63605 5.628922,-0.14111 11.265959,-0.0945 16.89947,-0.0317 7.20796,0.0801 14.4085,-0.43145 21.61822,-0.25647 1.36667,0.0328 2.73509,0.0134 4.10493,-0.009 0.70202,-0.0547 1.40405,-0.0607 2.10396,-0.0448 0.266,0.006 0.49954,-0.0268 0.70591,-0.0981 0.5655,-0.0504 1.12148,-0.21202 1.66017,-0.58067 0.25506,-0.17462 0.50518,-0.17392 0.80222,-0.0254 1.92793,0.96308 3.94723,0.61101 5.9556,0.37924 0.78598,-0.1397 1.57233,0.35948 2.35867,0.15275 0.20108,0.10936 0.43497,0.18027 0.72778,0.18556 6.3627,0.1524 12.72752,0.36971 19.09445,0.47272 3.88726,0.0624 7.77311,0.0473 11.66001,0.25894 1.55681,0.0843 3.14502,0.16545 4.70641,-0.13793 0.48578,-0.14147 0.9839,-0.079 1.47638,-0.10196 1.52717,-0.0713 3.02224,0.35384 4.55683,0.26494 0.4198,-0.024 0.81774,-0.10266 1.20826,-0.20073 0.7807,0.0212 1.56139,0.0462 2.34174,0.0773 0.24447,0.01 0.4886,0.0152 0.73272,0.0212 0.18944,0.0575 0.38065,0.10548 0.57115,0.12524 0.74365,0.0773 1.44921,0.0187 2.14841,-0.12418 0.31821,-0.008 0.63712,-0.0169 0.95638,-0.0293 0.76941,-0.03 1.53917,-0.007 2.30964,0.0236 0.16722,0.0533 0.36336,0.0593 0.54046,0.0751 1.06397,0.0938 2.14488,-0.13123 3.19722,0.16051 0.13441,0.0363 0.27199,0.0632 0.41099,0.0741 3.29035,-0.1069 6.54685,0.4392 9.83086,0.52317 0.14534,-0.006 0.27693,-0.0201 0.39863,-0.0423 0.76835,0.28293 1.56704,0.24589 2.36714,0.19615 0.58844,0.0794 1.14865,0.37006 1.76601,0.23671 0.90629,0.1076 1.81398,0.12771 2.72274,0.0335 0.95955,0.27693 1.93534,0.39123 2.91747,0.44098 l 0.003,0.006 c 0.67734,0.21873 1.38219,0.0907 2.07187,0.14746 1.23401,0.2854 2.48673,0.2593 3.73838,0.21661 0.54293,0.2667 1.1176,0.18415 1.69051,0.12136 0.56515,-0.22155 0.31221,-0.67028 0.28963,-1.05199 -0.0257,-0.42404 -0.33302,-0.86324 0.1584,-1.36842 0.43533,0.42686 0.69392,0.86713 0.58667,1.49084 -0.0593,0.34501 -0.2734,0.73871 0.24412,0.93592 0.24801,0.003 0.49636,0.005 0.74436,0.008 1.15923,0.0328 2.29553,0.39334 3.46746,0.242 2.84021,-0.0469 5.6709,0.30022 8.50723,0.29034 0.37395,0.09 0.75495,0.078 1.13595,0.054 0.11289,-0.0145 0.21872,-0.0409 0.32455,-0.0758 2.81164,0.0434 5.63034,0.2166 8.42787,-0.26635 1.2453,-0.0554 2.39889,-0.45614 3.53836,-0.92075 0.0529,-0.0607 0.10583,-0.12136 0.15875,-0.18168 0.0459,0.0303 0.0882,0.0603 0.13758,0.0889 1.54517,-0.42051 2.74108,-2.59574 2.33892,-4.35716 -0.20109,-0.883 -0.39864,-1.778 -0.71614,-2.62537 -0.98425,-2.65818 -2.59645,-4.67572 -5.60211,-5.15902 -0.17992,0.0187 -0.31397,0.0607 -0.41275,0.12029 -0.13406,-0.0423 -0.27164,-0.0847 -0.4057,-0.12735 -0.11994,-0.0332 -0.23636,-0.061 -0.33866,-0.0783 -0.94898,-0.22648 -1.91559,-0.35489 -2.88573,-0.43921 -0.0847,-0.10865 -0.17286,-0.2106 -0.28575,-0.29421 -1.13594,-0.43216 -2.35302,-0.38665 -3.5313,-0.58561 -0.50447,-0.085 -1.10772,-0.0586 -1.23472,-0.79305 -0.23637,-1.36666 0.19402,-1.88489 1.58044,-1.91064 3.26672,-0.061 6.54403,0.22048 9.79664,-0.27199 1.98261,-0.30057 3.79589,-0.92922 4.58611,-3.05682 0.0635,-0.26353 0.0388,-0.53164 -0.0106,-0.80116 0.30691,-0.6724 0.59266,-1.34726 0.0459,-2.09586 0.0388,-0.0529 0.0811,-0.10583 0.13053,-0.15839 -0.10231,-0.60114 -0.0459,-1.23437 -0.35631,-1.79599 -0.13405,-0.1584 -0.20814,-0.38771 -0.30692,-0.58738 0.007,-0.24624 0.0847,-0.48754 0.4057,-0.71896"
       style="fill:#E63946;fill-opacity:1;fill-rule:nonzero;stroke:none;stroke-width:0.0352778" />
  </g>
</svg>
